<svg xmlns="http://www.w3.org/2000/svg" xmlns:xlink="http://www.w3.org/1999/xlink" version="1.1" id="Your_Icon" x="0px" y="0px" width="100px" height="100px" viewBox="0 0 100 100" enable-background="new 0 0 100 100" xml:space="preserve">
<g>
	<polygon fill="#000000" points="25.49,56.626 25.486,56.63 25.486,56.63  "/>
	<path fill="#000000" d="M31,48.7v-0.002c1-0.822,1.406-1.921,1.874-2.89c0.002-0.004,0.085-0.01,0.086-0.013   c0.192-0.352,0.424-0.709,0.617-1.081l0.05-0.05c4.789-7.088,6.324-7.155,7.94-7.228c0.25-0.011,0.491-0.021,0.741-0.064   c1.112-0.191,2.168-0.23,3.186-0.268c1.584-0.057,3.082-0.111,4.655-0.731l0.082-0.032c2.006-0.782,2.104-1.194,2.108-1.24   c-0.001,0-0.03-0.076-0.221-0.199c-0.278-0.174-2.012-0.509-3.376-0.693c-3.099-0.422-4.79-0.525-7.545-0.461   c-1.046,0.023-1.899,0.208-3.055,0.557c-0.043,0.179-0.082,0.337-0.114,0.474c-0.218,0.911-0.284,1.186-0.573,1.225   c-0.051,0.007-0.108,0.007-0.174,0.001c-0.101-0.009-0.436-0.073-0.47-0.547c-0.002-0.03,0.145-0.486,0.247-0.912   c0.069-0.289,0.159-0.667,0.279-1.158c0.426-1.758,7.073-4.872,7.889-4.987c0.903-0.132,2.458-0.174,4.094-0.219   c1.859-0.052,4.404-0.124,4.852-0.364c0.645-0.348,0.772-0.598,0.75-0.68c-0.083-0.31-1.057-1.01-4.182-1.665   c-2.357-0.494-4.829-0.729-5.959-0.701c-1.824,0.047-6.473,1.987-9.251,3.146c-0.737,0.308-1.373,0.573-1.831,0.751   c-0.268,0.105-0.488,0.191-0.674,0.237c-0.181,0.155-0.32,0.246-0.442,0.294l-0.155-0.397c-0.023-0.023-0.046-0.042-0.067-0.072   c-0.067-0.092-0.106-0.215-0.096-0.345l-0.045-0.115l-0.011,0.004c0.027-0.014,0.064-0.04,0.107-0.074   c0.02-0.043,0.045-0.086,0.079-0.126l0.035,0.029c0.404-0.365,1.172-1.205,1.865-1.966c2.465-2.699,5.84-6.396,8.101-6.754   c1.58-0.252,2.995-0.339,4.244-0.415c2.687-0.165,4.462-0.274,5.61-1.741c0.314-0.4,0.217-0.567,0.182-0.629   c-0.803-1.388-8.474-1.598-12.687-1.007c-2.303,0.33-6.293,3.92-8.211,5.646c-0.28,0.251-0.524,0.471-0.723,0.646   c-0.439,0.384-0.883,0.759-1.324,1.131c-0.603,0.509-1.226,1.034-1.81,1.567c-0.107,0.098-0.21,0.253-0.293,0.383   c0.003,0.01,0.007,0.02,0.011,0.03l-0.042,0.017c-0.134,0.205-0.354,0.509-0.731,0.387c-0.047-0.015-0.086-0.036-0.122-0.058   l-0.035,0.013c-0.008-0.021-0.015-0.038-0.022-0.059c-0.188-0.161-0.206-0.425-0.201-0.609c-0.196-0.764,0.03-1.083,0.771-1.816   c0.351-0.348,0.832-0.825,1.474-1.594c1.379-1.649,3.457-3.728,4.831-5.102c0.505-0.506,0.905-0.906,1.125-1.139   c0.242-0.257,0.843-0.62,2.073-1.35c2.069-1.229,6.373-3.787,6.538-5.233c0.02-0.173-0.034-0.307-0.18-0.446   c-0.204-0.194-0.586-0.289-1.105-0.273c-3.643,0.107-12.601,5.439-16.945,10.055c-1.139,3.58-3.103,7.383-4.259,9.621   c0,0-0.585,0.885-0.472,1.677c-0.008-0.011-0.591-0.022-0.6-0.034C19.513,29.144,19,29.239,19,29.341V29h1.152   c0.101,0,0.244,0.852,0.415,1.288c0.148,0.381,0.317,0.899,0.5,1.397c1.05,2.86,0.245,8.57-0.628,11.5l-0.957-0.264   c0.869-2.913,1.578-8.286,0.648-10.816c-0.18-0.491-0.346-0.912-0.492-1.287c-0.45-1.151-0.73-1.868-0.611-2.476   c0.017-0.053,0.034-0.104,0.055-0.163c0.033-0.092,0.068-0.182,0.104-0.269c0.002-0.004,0.005-0.008,0.006-0.014c0,0,0,0,0,0   c0.187-0.453,0.389-0.804,0.508-0.993c0,0,0.001,0.001,0.001,0.002c0.008-0.014,0.017-0.03,0.023-0.044   c0.048-0.075,0.077-0.117,0.077-0.117l-0.01-0.013c1.772-3.433,6.479-12.69,4.437-15.761c-1.865,0.559-2.619,2.144-3.685,4.045   c-0.565,1.007-1.099,1.958-1.674,2.834c-0.9,1.368-1.448,2.785-2.433,3.913c-0.435,0.499-0.885,1.016-1.342,1.569   c-0.439,0.531-1.158,1.931-1.604,2.443c-0.248,0.287-0.498,0.575-0.747,0.867c-0.257,0.234-0.511,0.479-0.756,0.733   c-2.216,2.312-4.939,9.4-4.939,9.4s-1.774,4.709-2.074,8.682c-0.002,0.003-0.005,0.006-0.005,0.011   c-0.088,1.29-0.154,4.036-0.02,5.989c-0.003-0.01-0.007-0.021-0.01-0.031c0.017,0.242,0.039,0.48,0.06,0.719   C5.043,52.756,5.08,53.15,5.08,53.15l0.032,0.146c1.261,11.157,6.301,17.782,8.589,20.268c-0.294-2.08-0.385-5.812,1.727-9.461   c0.136-0.233,0.277-0.462,0.426-0.687c0.009-0.015,0.02-0.028,0.03-0.044c0.107-0.16,0.221-0.316,0.336-0.473   c0.086-0.117,0.184-0.246,0.292-0.384c0.085-0.109,0.171-0.218,0.26-0.324c0.044-0.053,0.088-0.105,0.134-0.161   c0.169-0.196,0.342-0.391,0.523-0.579l-0.006-0.01c0.269-0.293,1.089-1.034,1.184-1.095c0.919-0.779,4.417-3.168,4.417-3.168   C26.68,54.435,29,51.951,31,48.7z"/>
	<path fill="#000000" d="M94.719,54.031c-0.481-0.353-1.461-0.415-2.038-0.249c-1.896,0.543-3.844,2.011-5.562,3.306   c-0.207,0.156-0.409,0.307-0.605,0.454c-1.095,0.817-2.176,1.721-3.22,2.594c-0.538,0.45-1.076,0.9-1.618,1.341   c-0.616,0.501-7.194,4.191-7.194,4.191c-0.108-0.509,0.164-1.156,0.729-1.932l-0.003-0.007c0.004-0.001,0.007-0.003,0.01-0.004   c0.727-0.988,1.925-2.185,3.421-3.562c0.16-0.148,0.296-0.273,0.399-0.37c2.13-2.014,4.132-4.229,6.068-6.371   c2.313-2.558,4.703-5.202,7.342-7.543c0.555-0.491,1.132-1.33,1.176-2.102c0.023-0.378-0.084-0.694-0.326-0.966   c-1.004-1.124-2.116-0.68-3.943,0.596c-1.889,1.318-3.684,3.011-5.508,4.776c-0.244,0.235-0.733,0.698-1.35,1.281   c-1.795,1.696-5.494,5.196-5.981,5.831c-0.035,0.098-0.108,0.203-0.245,0.305l-0.035-0.044c-0.913,0.982-1.96,2.08-2.301,2.317   c-1.255,0.879-2.566,1.847-4.252,3.135l-0.627-0.819c1.697-1.298,3.019-2.273,4.288-3.162c0.256-0.179,1.447-1.412,2.965-3.071   c0.928-1.014,1.798-2.644,2.374-3.722c0.357-0.669,3.513-6.581,4.159-7.963c0.166-0.355,0.413-0.747,0.673-1.161   c0.569-0.907,1.278-2.036,1.042-2.72c-0.102-0.295-0.409-0.537-0.912-0.718c-1.8-0.645-3.596,1.897-4.671,3.417l-0.217,0.307   c-0.746,1.043-1.447,2.162-2.126,3.245c-1.066,1.7-2.17,3.459-3.505,5.032c-0.934,1.104-5.115,4.054-8.618,6.268   c-7.666,4.849-8.628,4.265-8.989,4.046c-0.188-0.115-0.594-0.473-0.255-1.301c0.824-2.015,2.924-5.099,4.121-6.549   c1.61-1.953,3.722-4.832,3.45-7.28c-0.102-0.924-0.527-1.724-1.298-2.432c-1.519,1.757-6.229,6.642-8.601,9.101   c-0.554,0.573-0.956,0.991-1.123,1.166c-2.149,2.262-3.794,4.343-5.537,6.545c-0.809,1.022-1.646,2.08-2.57,3.205   c-0.322,0.391-0.653,0.786-0.988,1.184c-1.929,2.299-3.923,4.676-4.879,7.346c-0.261,0.728-0.506,1.497-0.744,2.24   c-0.336,1.059-0.68,2.131-1.09,3.175l0.03,0.004c-0.447,1.208-1.119,2.759-1.874,3.604c-0.047,0.052-0.071,0.122-0.08,0.181   C32.388,82.156,29.578,85,25.396,85h-0.001c-0.228,0-0.419-0.046-0.651-0.027C28.065,87.071,37,92.152,48,90.483v0.041   c0,0,1.634-0.149,2.463-0.331l-0.024,0.039c3.129-0.848,6.367-1.783,9.511-3.077c0.356-0.164,0.716-0.322,1.106-0.512   c-0.03,0.031-0.067,0.069-0.1,0.101c1.112-0.488,2.208-1.019,3.277-1.608c2.307-1.274,4.519-2.801,6.659-4.28   c1.229-0.849,2.499-1.725,3.778-2.55c2.146-1.382,4.164-3.23,6.117-5.021c0.47-0.43,0.935-0.857,1.397-1.271   c2.275-2.044,4.856-3.789,7.354-5.476l0.092-0.063c0.128-0.085,0.271-0.174,0.422-0.269c0.448-0.277,1.198-0.744,1.21-1.067   c0.004-0.146-0.177-0.366-0.488-0.591c-0.521-0.377-1.452-0.3-2.769,0.229c-2.228,0.896-4.546,2.347-6.409,3.513   c-0.702,0.439-2.088,1.31-3.834,2.557l-0.194-0.228c-0.062-0.399,1.339-1.682,1.339-1.682c0.074-0.061,0.257-0.221,0.273-0.242   c-0.039,0.014,5.092-4.743,6.124-5.748c1.804-1.758,3.669-3.574,5.892-5.239c0.875-0.656,1.612-1.199,2.479-1.701   c0.659-0.382,1.334-1.034,1.322-1.464C94.995,54.33,94.904,54.168,94.719,54.031z"/>
</g>
</svg>